<svg width="69" height="68" viewBox="0 0 69 68" fill="none" xmlns="http://www.w3.org/2000/svg">
<path d="M34.5 0C40.7591 0 46.5316 1.51997 51.8174 4.5599C57.1032 7.59983 61.2884 11.7244 64.373 16.9336C67.4577 22.1428 69 27.8316 69 34C69 40.1684 67.4577 45.8572 64.373 51.0664C61.2884 56.2756 57.1032 60.4002 51.8174 63.4401C46.5316 66.48 40.7591 68 34.5 68C28.2409 68 22.4684 66.48 17.1826 63.4401C11.8968 60.4002 7.71159 56.2756 4.62695 51.0664C1.54232 45.8572 0 40.1684 0 34C0 27.8316 1.54232 22.1428 4.62695 16.9336C7.71159 11.7244 11.8968 7.59983 17.1826 4.5599C22.4684 1.51997 28.2409 0 34.5 0ZM46.8086 23.0651C46.7487 23.0946 46.6064 23.2348 46.3818 23.4857C46.1572 23.7365 45.9551 23.8767 45.7754 23.9062C45.8353 23.9062 45.9027 23.8325 45.9775 23.6849C46.0524 23.5373 46.1273 23.375 46.2021 23.1979C46.277 23.0208 46.3294 22.9175 46.3594 22.888C46.5391 22.6814 46.8685 22.4601 47.3477 22.224C47.7669 22.0469 48.5456 21.8698 49.6836 21.6927C50.7018 21.4566 51.4655 21.6189 51.9746 22.1797C51.9147 22.1207 52.057 21.9288 52.4014 21.6042C52.7458 21.2795 52.9629 21.1024 53.0527 21.0729C53.1426 21.0139 53.3672 20.9475 53.7266 20.8737C54.0859 20.7999 54.3105 20.6892 54.4004 20.5417L54.4902 19.5677C54.1309 19.5972 53.8688 19.4939 53.7041 19.2578C53.5394 19.0217 53.4421 18.7118 53.4121 18.3281C53.4121 18.3872 53.3223 18.5052 53.1426 18.6823C53.1426 18.4757 53.0752 18.3576 52.9404 18.3281C52.8057 18.2986 52.6335 18.3134 52.4238 18.3724C52.2142 18.4314 52.0794 18.4462 52.0195 18.4167C51.7201 18.3281 51.4954 18.2174 51.3457 18.0846C51.196 17.9518 51.0762 17.7083 50.9863 17.3542C50.8965 17 50.8366 16.7786 50.8066 16.6901C50.7467 16.5425 50.6045 16.3876 50.3799 16.2253C50.1553 16.0629 50.013 15.908 49.9531 15.7604C49.9232 15.7014 49.8857 15.6202 49.8408 15.5169C49.7959 15.4136 49.751 15.3177 49.7061 15.2292C49.6611 15.1406 49.6012 15.0595 49.5264 14.9857C49.4515 14.9119 49.3691 14.875 49.2793 14.875C49.1895 14.875 49.0846 14.9488 48.9648 15.0964C48.8451 15.2439 48.7327 15.3915 48.6279 15.5391C48.5231 15.6866 48.4557 15.7604 48.4258 15.7604C48.3359 15.7014 48.2461 15.6793 48.1562 15.694C48.0664 15.7088 47.999 15.7235 47.9541 15.7383C47.9092 15.753 47.8418 15.7973 47.752 15.8711C47.6621 15.9449 47.5872 15.9965 47.5273 16.026C47.4375 16.0851 47.3102 16.1293 47.1455 16.1589C46.9808 16.1884 46.8535 16.2179 46.7637 16.2474C47.2129 16.0998 47.1979 15.9375 46.7188 15.7604C46.4193 15.6424 46.1797 15.5981 46 15.6276C46.2695 15.5095 46.3818 15.3325 46.3369 15.0964C46.292 14.8602 46.1647 14.6536 45.9551 14.4766H46.1797C46.1497 14.3585 46.0225 14.2331 45.7979 14.1003C45.5732 13.9674 45.3112 13.842 45.0117 13.724C44.7122 13.6059 44.5176 13.5174 44.4277 13.4583C44.1882 13.3108 43.679 13.1706 42.9004 13.0378C42.1217 12.9049 41.6276 12.8976 41.418 13.0156C41.2682 13.1927 41.2008 13.3477 41.2158 13.4805C41.2308 13.6133 41.2907 13.8199 41.3955 14.1003C41.5003 14.3806 41.5527 14.5651 41.5527 14.6536C41.5827 14.8307 41.5003 15.0226 41.3057 15.2292C41.111 15.4358 41.0137 15.6128 41.0137 15.7604C41.0137 15.967 41.2233 16.1957 41.6426 16.4466C42.0618 16.6975 42.2116 17.0148 42.0918 17.3984C42.002 17.6345 41.7624 17.8707 41.373 18.1068C40.9837 18.3429 40.7441 18.52 40.6543 18.638C40.5046 18.8741 40.4821 19.1471 40.5869 19.457C40.6917 19.7669 40.849 20.0104 41.0586 20.1875C41.1185 20.2465 41.141 20.3056 41.126 20.3646C41.111 20.4236 41.0586 20.49 40.9688 20.5638C40.8789 20.6376 40.7965 20.6966 40.7217 20.7409C40.6468 20.7852 40.5495 20.8368 40.4297 20.8958L40.2949 20.9844C39.9655 21.1319 39.6585 21.0434 39.374 20.7187C39.0895 20.3941 38.8874 20.0104 38.7676 19.5677C38.5579 18.8299 38.3184 18.3872 38.0488 18.2396C37.36 18.0035 36.9258 18.0182 36.7461 18.2839C36.5964 17.9002 35.9824 17.5165 34.9043 17.1328C34.1556 16.8672 33.2871 16.8082 32.2988 16.9557C32.4785 16.9262 32.4785 16.7049 32.2988 16.2917C32.0892 15.849 31.8047 15.6719 31.4453 15.7604C31.5352 15.5833 31.5951 15.3251 31.625 14.9857C31.6549 14.6463 31.6699 14.447 31.6699 14.388C31.7598 14.0043 31.9395 13.6649 32.209 13.3698C32.2389 13.3403 32.3438 13.2148 32.5234 12.9935C32.7031 12.7721 32.8454 12.5729 32.9502 12.3958C33.055 12.2187 33.0625 12.1302 32.9727 12.1302C34.0208 12.2483 34.7695 12.0859 35.2188 11.6432C35.3685 11.4957 35.5407 11.2448 35.7354 10.8906C35.93 10.5365 36.0872 10.2856 36.207 10.138C36.4766 9.96094 36.6862 9.87977 36.8359 9.89453C36.9857 9.90929 37.2028 9.99045 37.4873 10.138C37.7718 10.2856 37.9889 10.3594 38.1387 10.3594C38.5579 10.3889 38.79 10.2266 38.835 9.8724C38.8799 9.51823 38.7676 9.22309 38.498 8.98698C38.8574 9.01649 38.9023 8.76562 38.6328 8.23437C38.4831 8.02778 38.3633 7.89497 38.2734 7.83594C37.9141 7.71788 37.5098 7.79167 37.0605 8.05729C36.821 8.17535 36.8509 8.2934 37.1504 8.41146C37.1204 8.38194 36.9782 8.53689 36.7236 8.8763C36.4691 9.21571 36.222 9.47396 35.9824 9.65104C35.7428 9.82812 35.5033 9.75434 35.2637 9.42969C35.2337 9.40017 35.1514 9.20095 35.0166 8.83203C34.8818 8.46311 34.7396 8.26389 34.5898 8.23437C34.3503 8.23437 34.1107 8.45573 33.8711 8.89844C33.9609 8.66233 33.7962 8.44097 33.377 8.23437C32.9577 8.02778 32.5983 7.90972 32.2988 7.88021C32.8678 7.52604 32.748 7.1276 31.9395 6.6849C31.7298 6.56684 31.4229 6.49306 31.0186 6.46354C30.6143 6.43403 30.3223 6.49306 30.1426 6.64062C29.9928 6.84722 29.9105 7.01693 29.8955 7.14974C29.8805 7.28255 29.9554 7.40061 30.1201 7.50391C30.2848 7.6072 30.4421 7.68837 30.5918 7.7474C30.7415 7.80642 30.9137 7.86545 31.1084 7.92448C31.3031 7.98351 31.4303 8.02778 31.4902 8.05729C31.9095 8.35243 32.0293 8.55903 31.8496 8.67708C31.7897 8.7066 31.6624 8.75825 31.4678 8.83203C31.2731 8.90582 31.1009 8.97222 30.9512 9.03125C30.8014 9.09028 30.7116 9.14931 30.6816 9.20833C30.5918 9.32639 30.5918 9.53299 30.6816 9.82812C30.7715 10.1233 30.7415 10.3299 30.5918 10.4479C30.4421 10.3003 30.3073 10.0421 30.1875 9.67318C30.0677 9.30425 29.9629 9.06076 29.873 8.94271C30.0827 9.20833 29.7083 9.29687 28.75 9.20833L28.3008 9.16406C28.181 9.16406 27.9414 9.19358 27.582 9.2526C27.2227 9.31163 26.9157 9.32639 26.6611 9.29687C26.4066 9.26736 26.2044 9.14931 26.0547 8.94271C25.9349 8.7066 25.9349 8.41146 26.0547 8.05729C26.0846 7.93924 26.1445 7.90972 26.2344 7.96875C26.1146 7.88021 25.9499 7.74002 25.7402 7.54818C25.5306 7.35634 25.3809 7.2309 25.291 7.17187C23.9134 7.61458 22.5059 8.21962 21.0684 8.98698C21.248 9.01649 21.4277 9.00174 21.6074 8.94271C21.7572 8.88368 21.9518 8.78776 22.1914 8.65495C22.431 8.52214 22.5807 8.44097 22.6406 8.41146C23.6589 7.99826 24.2878 7.89497 24.5273 8.10156L24.752 7.88021C25.1712 8.35243 25.4707 8.72135 25.6504 8.98698C25.4408 8.86892 24.9915 8.85417 24.3027 8.94271C23.7038 9.11979 23.3743 9.29687 23.3145 9.47396C23.5241 9.82812 23.599 10.0937 23.5391 10.2708C23.4193 10.1823 23.2471 10.0347 23.0225 9.82812C22.7979 9.62153 22.5807 9.4592 22.3711 9.34115C22.1615 9.22309 21.9368 9.14931 21.6973 9.11979C21.2181 9.11979 20.8887 9.13455 20.709 9.16406C16.3366 11.5252 12.8177 14.8012 10.1523 18.9922C10.362 19.1988 10.5417 19.3168 10.6914 19.3464C10.8112 19.3759 10.8861 19.5087 10.916 19.7448C10.946 19.9809 10.9834 20.1432 11.0283 20.2318C11.0732 20.3203 11.2454 20.276 11.5449 20.099C11.8145 20.3351 11.8594 20.6155 11.6797 20.9401C11.7096 20.9106 12.3685 21.309 13.6562 22.1354C14.2253 22.6372 14.5397 22.947 14.5996 23.0651C14.6895 23.3898 14.5397 23.6554 14.1504 23.862C14.1204 23.803 13.9857 23.6701 13.7461 23.4635C13.5065 23.2569 13.3717 23.1979 13.3418 23.2865C13.252 23.434 13.2594 23.707 13.3643 24.1055C13.4691 24.5039 13.6263 24.6884 13.8359 24.6589C13.6263 24.6589 13.484 24.895 13.4092 25.3672C13.3343 25.8394 13.2969 26.3633 13.2969 26.9388C13.2969 27.5143 13.2819 27.8611 13.252 27.9792L13.3418 28.0234C13.252 28.3776 13.3343 28.8867 13.5889 29.5508C13.8434 30.2148 14.1654 30.5026 14.5547 30.4141C14.1654 30.5026 14.4648 31.1372 15.4531 32.3177C15.6328 32.5538 15.7526 32.6866 15.8125 32.7161C15.9023 32.7752 16.082 32.8858 16.3516 33.0482C16.6211 33.2105 16.8457 33.3581 17.0254 33.4909C17.2051 33.6237 17.3548 33.7786 17.4746 33.9557C17.5944 34.1033 17.7441 34.4353 17.9238 34.9518C18.1035 35.4683 18.3132 35.8151 18.5527 35.9922C18.4928 36.1693 18.6351 36.4644 18.9795 36.8776C19.3239 37.2908 19.4811 37.6302 19.4512 37.8958C19.4212 37.8958 19.3838 37.9106 19.3389 37.9401C19.2939 37.9696 19.2565 37.9844 19.2266 37.9844C19.3164 38.191 19.5485 38.3976 19.9229 38.6042C20.2972 38.8108 20.5293 39.0026 20.6191 39.1797C20.6491 39.2682 20.679 39.4158 20.709 39.6224C20.7389 39.829 20.7839 39.9913 20.8438 40.1094C20.9036 40.2274 21.0234 40.2569 21.2031 40.1979C21.263 39.6076 20.9036 38.6927 20.125 37.4531C19.6758 36.7153 19.4212 36.2873 19.3613 36.1693C19.2715 36.0217 19.1891 35.793 19.1143 35.4831C19.0394 35.1732 18.972 34.9592 18.9121 34.8411C18.972 34.8411 19.0618 34.8633 19.1816 34.9076C19.3014 34.9518 19.4287 35.0035 19.5635 35.0625C19.6982 35.1215 19.8105 35.1806 19.9004 35.2396C19.9902 35.2986 20.0202 35.3429 19.9902 35.3724C19.9004 35.579 19.9303 35.8372 20.0801 36.1471C20.2298 36.457 20.4095 36.73 20.6191 36.9661C20.8288 37.2023 21.0833 37.4826 21.3828 37.8073C21.6823 38.1319 21.862 38.3238 21.9219 38.3828C22.1016 38.5599 22.3112 38.8477 22.5508 39.2461C22.7904 39.6445 22.7904 39.8437 22.5508 39.8437C22.8203 39.8437 23.1198 39.9913 23.4492 40.2865C23.7786 40.5816 24.0332 40.8767 24.2129 41.1719C24.3626 41.408 24.4824 41.7917 24.5723 42.3229C24.6621 42.8542 24.737 43.2083 24.7969 43.3854C24.8568 43.592 24.984 43.7912 25.1787 43.9831C25.3734 44.1749 25.5605 44.3151 25.7402 44.4036L26.459 44.7578L27.043 45.0677C27.1927 45.1267 27.4697 45.2817 27.874 45.5326C28.2783 45.7834 28.6003 45.9531 28.8398 46.0417C29.1393 46.1597 29.3789 46.2187 29.5586 46.2187C29.7383 46.2187 29.9554 46.1819 30.21 46.1081C30.4645 46.0343 30.6667 45.9826 30.8164 45.9531C31.2656 45.8941 31.6999 46.1155 32.1191 46.6172C32.5384 47.1189 32.8529 47.4288 33.0625 47.5469C34.1406 48.1076 34.9642 48.27 35.5332 48.0339C35.4733 48.0634 35.4808 48.174 35.5557 48.3659C35.6305 48.5577 35.7503 48.7865 35.915 49.0521C36.0798 49.3177 36.2145 49.5317 36.3193 49.694C36.4242 49.8563 36.5065 49.9818 36.5664 50.0703C36.7161 50.2474 36.9857 50.4687 37.375 50.7344C37.7643 51 38.0339 51.2214 38.1836 51.3984C38.3633 51.2804 38.4681 51.1476 38.498 51C38.4082 51.2361 38.513 51.5312 38.8125 51.8854C39.112 52.2396 39.3815 52.3872 39.6211 52.3281C40.0404 52.2396 40.25 51.7674 40.25 50.9115C39.3216 51.3542 38.5879 51.0885 38.0488 50.1146C38.0488 50.0851 38.0114 50.0039 37.9365 49.8711C37.8617 49.7383 37.8018 49.6128 37.7568 49.4948C37.7119 49.3767 37.6745 49.2513 37.6445 49.1185C37.6146 48.9857 37.6146 48.875 37.6445 48.7865C37.6745 48.6979 37.7493 48.6536 37.8691 48.6536C38.1387 48.6536 38.2884 48.602 38.3184 48.4987C38.3483 48.3954 38.3184 48.2109 38.2285 47.9453C38.1387 47.6797 38.0788 47.4878 38.0488 47.3698C38.0189 47.1337 37.8542 46.8385 37.5547 46.4844C37.2552 46.1302 37.0755 45.9089 37.0156 45.8203C36.8659 46.0859 36.6263 46.204 36.2969 46.1745C35.9674 46.145 35.7279 46.0122 35.5781 45.776C35.5781 45.8056 35.5557 45.8867 35.5107 46.0195C35.4658 46.1523 35.4434 46.2483 35.4434 46.3073C35.054 46.3073 34.8294 46.2925 34.7695 46.263C34.7995 46.1745 34.8369 45.9162 34.8818 45.4883C34.9268 45.0603 34.9792 44.7283 35.0391 44.4922C35.069 44.3741 35.1514 44.197 35.2861 43.9609C35.4209 43.7248 35.5332 43.5108 35.623 43.319C35.7129 43.1272 35.7728 42.9427 35.8027 42.7656C35.8327 42.5885 35.7653 42.4483 35.6006 42.3451C35.4359 42.2418 35.1738 42.2049 34.8145 42.2344C34.2454 42.2639 33.8561 42.559 33.6465 43.1198C33.6165 43.2083 33.5716 43.3633 33.5117 43.5846C33.4518 43.806 33.377 43.9757 33.2871 44.0937C33.1973 44.2118 33.0625 44.3151 32.8828 44.4036C32.6732 44.4922 32.3138 44.5217 31.8047 44.4922C31.2956 44.4627 30.9362 44.3889 30.7266 44.2708C30.3372 44.0347 30.0003 43.6068 29.7158 42.987C29.4313 42.3672 29.2891 41.8212 29.2891 41.349C29.2891 41.0538 29.3265 40.6628 29.4014 40.1758C29.4762 39.6888 29.5212 39.3199 29.5361 39.069C29.5511 38.8181 29.4688 38.4566 29.2891 37.9844C29.3789 37.9253 29.5137 37.7852 29.6934 37.5638C29.873 37.3424 30.0228 37.1875 30.1426 37.099C30.2025 37.0694 30.2699 37.0473 30.3447 37.0326C30.4196 37.0178 30.487 37.0178 30.5469 37.0326C30.6068 37.0473 30.6667 37.0252 30.7266 36.9661C30.7865 36.9071 30.8314 36.8186 30.8613 36.7005C30.8314 36.671 30.7715 36.6267 30.6816 36.5677C30.5918 36.4792 30.5319 36.4349 30.502 36.4349C30.7116 36.5234 31.1383 36.5013 31.7822 36.3685C32.4261 36.2357 32.8379 36.2578 33.0176 36.4349C33.4668 36.7595 33.7962 36.73 34.0059 36.3464C34.0059 36.3168 33.9684 36.1766 33.8936 35.9258C33.8187 35.6749 33.8112 35.4757 33.8711 35.3281C34.0208 36.125 34.4551 36.2578 35.1738 35.7266C35.2637 35.8151 35.4958 35.8889 35.8701 35.9479C36.2445 36.0069 36.5065 36.0807 36.6562 36.1693C36.7461 36.2283 36.8509 36.3095 36.9707 36.4128C37.0905 36.5161 37.1729 36.5825 37.2178 36.612C37.2627 36.6415 37.3376 36.6341 37.4424 36.5898C37.5472 36.5456 37.6745 36.4497 37.8242 36.3021C38.1237 36.7153 38.3034 37.0694 38.3633 37.3646C38.6927 38.5451 38.9772 39.1944 39.2168 39.3125C39.4264 39.401 39.5911 39.4306 39.7109 39.401C39.8307 39.3715 39.8981 39.2313 39.9131 38.9805C39.9281 38.7296 39.9281 38.523 39.9131 38.3607C39.8981 38.1983 39.8757 38.0139 39.8457 37.8073L39.8008 37.4531V36.6562L39.7559 36.3021C39.3066 36.2135 39.0296 36.0365 38.9248 35.7708C38.82 35.5052 38.8424 35.2322 38.9922 34.9518C39.1419 34.6714 39.3665 34.3984 39.666 34.1328C39.696 34.1033 39.8158 34.0516 40.0254 33.9779C40.235 33.9041 40.4671 33.8082 40.7217 33.6901C40.9762 33.572 41.1634 33.454 41.2832 33.3359C41.9121 32.7752 42.1367 32.2587 41.957 31.7865C42.1667 31.7865 42.3314 31.6536 42.4512 31.388C42.4212 31.388 42.3464 31.3437 42.2266 31.2552C42.1068 31.1667 41.9945 31.0929 41.8896 31.0339C41.7848 30.9748 41.7174 30.9453 41.6875 30.9453C41.957 30.7977 41.987 30.5616 41.7773 30.237C41.9271 30.1484 42.0394 29.9861 42.1143 29.75C42.1891 29.5139 42.3014 29.3663 42.4512 29.3073C42.7207 29.6615 43.0352 29.691 43.3945 29.3958C43.6042 29.1597 43.6191 28.9236 43.4395 28.6875C43.5892 28.4809 43.8962 28.326 44.3604 28.2227C44.8245 28.1194 45.1016 27.9792 45.1914 27.8021C45.401 27.8611 45.5208 27.8316 45.5508 27.7135C45.5807 27.5955 45.5957 27.4184 45.5957 27.1823C45.5957 26.9462 45.6406 26.7691 45.7305 26.651C45.8503 26.5035 46.0749 26.3707 46.4043 26.2526C46.7337 26.1345 46.9284 26.0608 46.9883 26.0312L47.752 25.5443C47.8418 25.4262 47.8418 25.3672 47.752 25.3672C48.291 25.4262 48.7552 25.2639 49.1445 24.8802C49.444 24.5556 49.3542 24.2604 48.875 23.9948C48.9648 23.8177 48.9199 23.6775 48.7402 23.5742C48.5605 23.4709 48.3359 23.3898 48.0664 23.3307C48.1562 23.3012 48.3285 23.2938 48.583 23.3086C48.8376 23.3234 48.9948 23.3012 49.0547 23.2422C49.5039 22.947 49.3991 22.7109 48.7402 22.5339C48.2311 22.3863 47.5872 22.5634 46.8086 23.0651ZM39.4863 61.8906C45.6556 60.8281 50.9115 58.0391 55.2539 53.5234C55.1641 53.4349 54.9769 53.3685 54.6924 53.3242C54.4079 53.2799 54.2207 53.2283 54.1309 53.1693C53.5918 52.9627 53.2324 52.8446 53.0527 52.8151C53.0827 52.6085 53.0452 52.4167 52.9404 52.2396C52.8356 52.0625 52.7158 51.9297 52.5811 51.8411C52.4463 51.7526 52.2591 51.6345 52.0195 51.487C51.7799 51.3394 51.6152 51.2361 51.5254 51.1771C51.4655 51.1181 51.3607 51.0295 51.2109 50.9115C51.0612 50.7934 50.9564 50.7122 50.8965 50.668C50.8366 50.6237 50.7243 50.5573 50.5596 50.4687C50.3949 50.3802 50.2676 50.3507 50.1777 50.3802C50.0879 50.4097 49.9382 50.4245 49.7285 50.4245L49.5938 50.4687C49.5039 50.4983 49.4215 50.5352 49.3467 50.5794C49.2718 50.6237 49.1895 50.668 49.0996 50.7122C49.0098 50.7565 48.9499 50.8008 48.9199 50.8451C48.89 50.8893 48.89 50.9262 48.9199 50.9557C48.291 50.454 47.752 50.1293 47.3027 49.9818C47.153 49.9523 46.9883 49.8711 46.8086 49.7383C46.6289 49.6055 46.4717 49.5022 46.3369 49.4284C46.2021 49.3546 46.0524 49.3325 45.8877 49.362C45.723 49.3915 45.5508 49.4948 45.3711 49.6719C45.2214 49.8194 45.1315 50.0408 45.1016 50.3359C45.0716 50.6311 45.0417 50.8229 45.0117 50.9115C44.8021 50.7639 44.8021 50.5056 45.0117 50.1367C45.2214 49.7678 45.2513 49.4948 45.1016 49.3177C45.0117 49.1406 44.8545 49.0742 44.6299 49.1185C44.4053 49.1628 44.2256 49.2292 44.0908 49.3177C43.9561 49.4062 43.7839 49.5317 43.5742 49.694C43.3646 49.8563 43.2298 49.9523 43.1699 49.9818C43.11 50.0113 42.9827 50.0924 42.7881 50.2253C42.5934 50.3581 42.4661 50.4687 42.4062 50.5573C42.3164 50.6753 42.2266 50.8524 42.1367 51.0885C42.0469 51.3247 41.972 51.487 41.9121 51.5755C41.8522 51.4575 41.68 51.3615 41.3955 51.2878C41.111 51.214 40.9688 51.1328 40.9688 51.0443C41.0286 51.3394 41.0885 51.8559 41.1484 52.5937C41.2083 53.3316 41.2832 53.8924 41.373 54.276C41.5827 55.191 41.403 55.8993 40.834 56.401C40.0254 57.1389 39.5911 57.7292 39.5312 58.1719C39.4115 58.8212 39.5911 59.2049 40.0703 59.3229C40.0703 59.5295 39.9505 59.832 39.7109 60.2305C39.4714 60.6289 39.3665 60.9462 39.3965 61.1823C39.3965 61.3594 39.4264 61.5955 39.4863 61.8906Z" fill="white"/>
</svg>
